<svg xmlns="http://www.w3.org/2000/svg" xmlns:xlink="http://www.w3.org/1999/xlink" viewBox="0,0,256,256" width="64px" height="64px"><g fill="#ffffff" fill-rule="nonzero" stroke="none" stroke-width="1" stroke-linecap="butt" stroke-linejoin="miter" stroke-miterlimit="10" stroke-dasharray="" stroke-dashoffset="0" font-family="none" font-weight="none" font-size="none" text-anchor="none" style="mix-blend-mode: normal"><g transform="scale(2,2)"><path d="M41.80078,37c-15,0 -27.30078,12.1 -27.30078,27c0,14.9 12.20078,27 27.30078,27c10.9,0 20.29922,-6.39961 24.69922,-15.59961h3.59961c1.7,0 3.09961,-2.90039 3.09961,-2.90039c1.2,-2.6 1.80078,-5.5 1.80078,-8.5c0,-1.9 -0.40078,-3.70039 -0.80078,-5.40039h27.20117l4.90039,3.90039l-5.40039,6.90039h-4.59961c-1.7,0 -3,1.3 -3,3c0,1.7 1.3,3 3,3h6.09961c0.9,0 1.80039,-0.40117 2.40039,-1.20117l8.09961,-10.39844c1,-1.3 0.8,-3.10156 -0.5,-4.10156l-8.09961,-6.39844c-0.5,-0.4 -1.20039,-0.60156 -1.90039,-0.60156h-36c-4.3,-9.3 -13.69961,-15.69922 -24.59961,-15.69922zM41.80078,43c11.8,0 21.19922,9.4 21.19922,21c0,11.6 -9.49922,21 -21.19922,21c-11.8,0 -21.30078,-9.4 -21.30078,-21c0,-11.6 9.50078,-21 21.30078,-21zM33,55c-5,0 -9.09961,4 -9.09961,9c0,5 4.09961,9 9.09961,9c5,0 9.09961,-4 9.09961,-9c0,-5 -4.09961,-9 -9.09961,-9zM33,61c1.7,0 3.09961,1.3 3.09961,3c0,1.7 -1.39961,3 -3.09961,3c-1.7,0 -3.09961,-1.3 -3.09961,-3c0,-1.7 1.39961,-3 3.09961,-3zM80.09961,69.40039c-1.7,0 -3,1.3 -3,3c0,1.7 1.3,3 3,3h6.09961c1.7,0 3,-1.3 3,-3c0,-1.7 -1.3,-3 -3,-3z"></path></g></g></svg>